Coordinates
version=1
nRows=26
nColumns=24
inDegrees=yes

Units are S.I. units (second, meters, Newtons, ...)
Angles are in degrees.

endheader
time	pelvis_tilt	pelvis_list	pelvis_rotation	pelvis_tx	pelvis_ty	pelvis_tz	hip_flexion_r	hip_adduction_r	hip_rotation_r	knee_angle_r	ankle_angle_r	subtalar_angle_r	mtp_angle_r	hip_flexion_l	hip_adduction_l	hip_rotation_l	knee_angle_l	ankle_angle_l	subtalar_angle_l	mtp_angle_l	lumbar_extension	lumbar_bending	lumbar_rotation
      0.80033333	     -1.10081303	     -3.95131779	      6.11982437	     -0.40546368	      0.90386175	      0.32715365	     15.07722141	      9.32774764	     -7.04299017	    -25.17781171	     12.13830242	     -1.28271152	      3.61140264	     16.54473284	     -8.70683439	     -4.03142345	    -72.55784899	     -0.32919468	     -7.49932296	      3.81864675	     -4.84434268	      6.64160530	     -2.04890817
      0.80450000	     -1.12326248	     -3.84552653	      5.92046630	     -0.40030118	      0.90496858	      0.32760308	     14.48764840	      9.32182608	     -6.80124157	    -24.72930972	     12.22660731	     -1.10683055	      3.59664878	     17.10647519	     -8.49207316	     -4.20590785	    -72.18782073	      0.30939473	     -7.43040195	      3.68548248	     -4.87137690	      6.52014924	     -1.61214436
      0.80866667	     -1.14601937	     -3.73130153	      5.71537538	     -0.39512112	      0.90608713	      0.32803988	     13.88633555	      9.30105278	     -6.56683032	    -24.25778743	     12.27621292	     -0.94730915	      3.58357287	     17.64467383	     -8.26501912	     -4.39084281	    -71.73806125	      0.89460005	     -7.43185104	      3.56141372	     -4.87676121	      6.38911262	     -1.31295502
      0.81283333	     -1.19253867	     -3.61285015	      5.50951938	     -0.38994787	      0.90716633	      0.32845197	     13.30880959	      9.26233024	     -6.35875332	    -23.77819943	     12.28872017	     -0.78282361	      3.58076173	     18.19623558	     -8.02676943	     -4.57804185	    -71.22354316	      1.43809511	     -7.49104160	      3.52760858	     -4.82465249	      6.24405199	     -1.18832030
      0.81700000	     -1.14966901	     -3.48974180	      5.28505599	     -0.38477242	      0.90837310	      0.32891098	     12.61345967	      9.23574008	     -6.09994114	    -23.25963019	     12.35053087	     -0.59902973	      3.57644501	     18.61877189	     -7.80737895	     -4.78468502	    -70.63203853	      1.98502607	     -7.35890132	      3.43617613	     -4.93589384	      6.11411673	     -0.76260261
      0.82116667	     -1.13539321	     -3.36345370	      5.05500376	     -0.37960118	      0.90952108	      0.32935780	     11.94917933	      9.19382550	     -5.85971966	    -22.73699790	     12.36507826	     -0.42843283	      3.57387412	     19.05730238	     -7.57921933	     -4.99793833	    -69.97933817	      2.49728716	     -7.30135217	      3.35000215	     -4.98300907	      5.97124202	     -0.44225864
      0.82533333	     -1.10478610	     -3.23284163	      4.81944538	     -0.37444325	      0.91067631	      0.32980560	     11.26097362	      9.14317509	     -5.62110332	    -22.19812991	     12.37493883	     -0.24879677	      3.57468215	     19.46040238	     -7.35077861	     -5.21755883	    -69.26282972	      2.98459348	     -7.22111052	      3.27516825	     -5.05478428	      5.82501309	     -0.14457116
      0.82950000	     -1.06072195	     -3.10308957	      4.57947966	     -0.36927984	      0.91182481	      0.33026061	     10.55039371	      9.09087849	     -5.38072331	    -21.64105018	     12.37599499	     -0.07146269	      3.57875885	     19.83066489	     -7.13013850	     -5.44486277	    -68.48731809	      3.44838466	     -7.12387351	      3.20183425	     -5.13866098	      5.67493174	      0.17420766
      0.83366667	     -1.03615377	     -2.95647060	      4.31718066	     -0.36416374	      0.91291804	      0.33072047	      9.87595717	      9.01135376	     -5.13369902	    -21.10905377	     12.33354498	      0.11831053	      3.58250604	     20.20019535	     -6.88581965	     -5.68341665	    -67.64666949	      3.90622334	     -7.04566707	      3.16359537	     -5.20878392	      5.51875828	      0.39250982
      0.83783333	     -0.96764362	     -2.81919050	      4.06473009	     -0.35902657	      0.91404485	      0.33117989	      9.13301202	      8.94136038	     -4.89471918	    -20.53178155	     12.32071210	      0.30209288	      3.58942786	     20.50633796	     -6.66384122	     -5.92131184	    -66.74952907	      4.32399311	     -6.91775162	      3.12420509	     -5.32588126	      5.36099079	      0.69319530
      0.84200000	     -0.87941001	     -2.70065123	      3.82695495	     -0.35388423	      0.91515031	      0.33164768	      8.35255894	      8.89243498	     -4.66064572	    -19.91373876	     12.33280707	      0.45834608	      3.60292978	     20.78561642	     -6.46974296	     -6.14772841	    -65.81125589	      4.70196845	     -6.76221211	      3.06653124	     -5.45923182	      5.21119258	      1.08496368
      0.84616667	     -0.82676060	     -2.55057412	      3.55069556	     -0.34879765	      0.91617546	      0.33212043	      7.64061044	      8.79484961	     -4.41712780	    -19.35320859	     12.26704773	      0.64085349	      3.61230401	     21.07276385	     -6.23641060	     -6.40178011	    -64.80154860	      5.08318811	     -6.64334058	      3.03158466	     -5.56524841	      5.04284635	      1.32917637
      0.85033333	     -0.73052753	     -2.43288851	      3.30499059	     -0.34368322	      0.91720251	      0.33258829	      6.85104754	      8.73524128	     -4.18341820	    -18.72402523	     12.26852371	      0.79614794	      3.63121619	     21.31037053	     -6.04547196	     -6.62736662	    -63.75703487	      5.41721194	     -6.48379036	      2.97968821	     -5.70840774	      4.89695066	      1.70188670
      0.85450000	     -0.65400556	     -2.30010380	      3.03898787	     -0.33860418	      0.91815450	      0.33305703	      6.09981471	      8.64876831	     -3.94608308	    -18.12429051	     12.22814091	      0.95939026	      3.65135234	     21.54718910	     -5.83743639	     -6.86821895	    -62.65435714	      5.73601853	     -6.34219944	      2.93253599	     -5.83718352	      4.73716935	      2.00718774
      0.85866667	     -0.57374708	     -2.17226288	      2.77153111	     -0.33353918	      0.91905942	      0.33353072	      5.34498642	      8.56240068	     -3.71176293	    -17.51984359	     12.18444914	      1.12266342	      3.67480991	     21.76562178	     -5.63519224	     -7.10156548	    -61.50353389	      6.02718686	     -6.20413019	      2.88460105	     -5.97137691	      4.58167008	      2.31548283
      0.86283333	     -0.49560236	     -2.04496327	      2.50134811	     -0.32849344	      0.91990147	      0.33399899	      4.59731033	      8.46947811	     -3.48651960	    -16.91950221	     12.14239771	      1.28334816	      3.69903193	     21.97140971	     -5.43528997	     -7.33597897	    -60.30476864	      6.28709459	     -6.06967129	      2.84054735	     -6.10348643	      4.42427702	      2.60868742
      0.86700000	     -0.43819568	     -1.91019962	      2.21683309	     -0.32347877	      0.92066036	      0.33446745	      3.89012598	      8.35755992	     -3.26270253	    -16.34981148	     12.06290579	      1.46213185	      3.71760187	     22.17999594	     -5.22602703	     -7.57236666	    -59.05095179	      6.52167788	     -5.94653109	      2.80910231	     -6.21837276	      4.26192867	      2.85027536
      0.87116667	     -0.35739003	     -1.79463535	      1.94772293	     -0.31844961	      0.92138466	      0.33492789	      3.14194872	      8.26531910	     -3.04695119	    -15.74426267	     12.02056665	      1.62585542	      3.74062840	     22.35280814	     -5.03957203	     -7.79145896	    -57.76035550	      6.72215896	     -5.82593924	      2.77439437	     -6.35304398	      4.11423326	      3.14475365
      0.87533333	     -0.28212477	     -1.70448837	      1.68840525	     -0.31343693	      0.92201943	      0.33539424	      2.39208617	      8.19956847	     -2.82113913	    -15.11395873	     11.99309990	      1.76717661	      3.78331947	     22.52964530	     -4.88161910	     -7.98703241	    -56.44695982	      6.90284952	     -5.71459418	      2.71476367	     -6.48510583	      3.99437953	      3.52978155
      0.87950000	     -0.22473558	     -1.59881875	      1.41820196	     -0.30843722	      0.92257199	      0.33584386	      1.67998977	      8.10371419	     -2.62036904	    -14.52031869	     11.95246039	      1.92842075	      3.82086688	     22.70146801	     -4.70672105	     -8.19461582	    -55.07401125	      7.04076315	     -5.62297208	      2.66458335	     -6.59140230	      3.85365884	      3.80124188
      0.88366667	     -0.19671726	     -1.48882414	      1.13667505	     -0.30346556	      0.92302157	      0.33629719	      1.02152078	      7.99400766	     -2.43164538	    -13.96449013	     11.87656035	      2.10477209	      3.84368811	     22.88632704	     -4.52736225	     -8.40121570	    -53.65183360	      7.14569086	     -5.53915217	      2.63325098	     -6.66869226	      3.70782127	      4.00483660
      0.88783333	     -0.12642921	     -1.41386956	      0.88586954	     -0.29847044	      0.92344660	      0.33672698	      0.28435683	      7.92408563	     -2.24197228	    -13.34023101	     11.87375654	      2.26385642	      3.88512391	     23.02269605	     -4.38219498	     -8.56873605	    -52.21136505	      7.23003430	     -5.48673621	      2.58240455	     -6.79429006	      3.60278300	      4.33995215
      0.89200000	     -0.09980697	     -1.32623462	      0.61279852	     -0.29350327	      0.92374820	      0.33716988	     -0.37498754	      7.82983784	     -2.06331020	    -12.77315084	     11.81927668	      2.43301937	      3.92103419	     23.18261228	     -4.22878488	     -8.75370933	    -50.71691222	      7.27698077	     -5.43535476	      2.53765040	     -6.87083233	      3.48370505	      4.59371276
      0.89616667	     -0.08339258	     -1.25277382	      0.34864367	     -0.28853442	      0.92395984	      0.33760104	     -1.02218187	      7.74631074	     -1.89771454	    -12.20566964	     11.76970167	      2.61101047	      3.95264125	     23.34273477	     -4.08837319	     -8.91820840	    -49.19209528	      7.29708898	     -5.40427602	      2.49850704	     -6.92715839	      3.37444201	      4.82661682
      0.90033333	     -0.06255945	     -1.18994255	      0.09294098	     -0.28356108	      0.92410515	      0.33801811	     -1.67982935	      7.67047059	     -1.73912128	    -11.62602755	     11.74342056	      2.78722378	      3.98888363	     23.48425566	     -3.95866907	     -9.06978505	    -47.63454484	      7.28912186	     -5.39709376	      2.45496707	     -6.99493470	      3.27929821	      5.08809706
      0.90450000	     -0.04517639	     -1.14533613	     -0.14987527	     -0.27858596	      0.92416077	      0.33842052	     -2.33786312	      7.61122842	     -1.58918540	    -11.03688648	     11.74909592	      2.96700248	      4.04219044	     23.62184168	     -3.84408141	     -9.19250989	    -46.05643032	      7.26218064	     -5.42579176	      2.39519141	     -7.06367473	      3.20446916	      5.39209693
